<svg width="196" height="196" fill="none" xmlns="http://www.w3.org/2000/svg"><g clip-path="url(#a)"><path d="M196 0H0v196h196V0Z" fill="#F3F3F3"/><path d="M130.63 149.991c3.33-4.08 4.44-8.37 2.74-11.59 27.21 13 45.78 14.87 60.64 27.98 15.93 14.05 20.38 27.25 29.23 49.65v.47H-28.01v-.47c8.85-22.4 13.3-35.6 29.23-49.65 14.9-13.15 32.79-15.93 60.89-28.1-3.75 9.37 12.18 24.36 37.47 24.36 14.42-.01 25.65-6.04 31.05-12.65ZM139.33 68.501c5.58.4 3.56 11.3 2 17.55-1.14 4.56-3.01 9.5-6.3 10.29h-.04c.6-8.52-1.05-12.48-1.05-12.48 0 6.78-2.39 13.16-2.39 13.16l-.8-.8c-1.2 7.18-3.99 13.56-7.58 13.56-1.62 0-2.73-.72-3.52-1.96 1-7.87 1-16.63 1-25.27 0-7.14-.42-13.27-1.26-18.62h.59c2.42 0 6.79.99 7.18.39.38-.6-1.2-3.07-4.37-3.39-1.18-.11-2.58-.22-3.98-.3-2.56-12.8-7.74-20.86-15.25-27.96.66-.07 1.2-.29 1.47-.56 0 0-2.43-1.26-1.19-2 1.99-1.2 4.39 2.13 7.57 2.39 4.79.4 5.18-1.25 7.98-1.59 3.19-.4 7.57 3.19 7.97 9.57.4 6.38 0 8.09 0 8.09s6.38 5.18 6.38 28.31c0 0 0-7.17 4.13-8.24.44-.13.92-.18 1.46-.14Z" fill="#fff"/><path d="M103.561 32.652c-1.26.14-2.97-.24-4.11-1.76-1.19-1.59-4.38-2.79-6.77-.4-2.63 2.63-4.91 1.72-5.17 1.61 1.19.37 2.02-1.7.83-2.49-1.2-.8-2.45.49-3.24 1.69-.8 1.19-3.19 3.98-7.58 2.79-5.16-1.41-7.97-1.6-10.37 5.18-2.19 6.22-2.39 12.88-2.39 12.88s-2.79 3.99-3.59 8.6c-.8 4.62.39 14.53 0 21.3 0 0-.71-10.94-5.94-11.26-.44-7.34-.71-13.18-.44-20.64.39-11.17 5.58-17.94 5.58-17.94s0-2 .39-3.19c.8-2.39 2.66-2.25 2.79-2.79.4-1.59 2-2.39 2-2.39s-.39-2 1.2-3.59c2.39-2.4 4.79-2 4.79-2 0-2 2.39-2.79 3.98-2 1.13.56 2.79.39 3.19-.4.56-1.12-.96-3.37-2.56-2.17 0 0 2.18-3.25 7.34-2.6 3.19.39 4.01-1.66 6.38-2 2.79-.4 2.79.8 5.18.8 2.4 0 3.22-.88 5.58-.4 2.37.49 2 1.6 5.58 1.6s6.38.39 7.58 2.39c1.19 2 2 3.19 4.38 3.19s6.02-.54 7.62 2.65c0 0-1.24-.25-2.03.54-.8.8.4 2 2.39 2 2.43 0 5.19 3.59 3.99 6.77 0 0 5.81 3.45 5.93 11.3.06 3.86 2.04 5.06 1.65 11.83-.4 6.78 0 11.17.05 16.52l.09.37c-4.13 1.08-4.13 8.24-4.13 8.24 0-23.13-6.38-28.31-6.38-28.31s.4-1.71 0-8.09-4.79-9.98-7.97-9.57c-2.8.35-3.19 2-7.98 1.59-3.18-.26-5.58-3.59-7.57-2.39-1.24.74 1.19 2 1.19 2-.26.25-.8.47-1.46.54ZM126.56 122.393c-.07.05-.12.09-.19.14-2.64 1.85-1.6 3.19-3.59 5.18-1.2 1.2-2.79.81-3.6 1.2-.8.4 0 3.59-4.78 4.79-1.6.39-2 2.39-4.39 2.79-3.17.52-3.7-.4-4.38 0-.68.39-3.2 1.67-5.58 1.2-2-.4-1.79-1.85-1.79-1.85 14.45-2.35 19.58-13.71 21.4-28.02.8 1.24 1.9 1.96 3.52 1.96 3.59 0 6.38-6.38 7.58-13.56l.8.8s2.39-6.38 2.39-13.16c0 0 1.65 3.96 1.05 12.48-.06.85-.14 1.74-.24 2.68-.42 3.64.73 5.58.37 9.2-.37 3.95-1.57 5.15-3.97 7.94-1.64 1.9-.84 3.52-4.6 6.23Z" fill="#000"/><path d="M133.37 138.401c1.7 3.22.59 7.51-2.74 11.59-14-.1-31.57-6.6-38.17-12.7 3.22 0 5.79-1.45 5.79-1.45s-.21 1.45 1.79 1.85c2.38.47 4.9-.81 5.58-1.2.68-.4 1.22.52 4.38 0 2.4-.4 2.79-2.4 4.39-2.79 4.78-1.2 3.98-4.38 4.78-4.79.81-.39 2.4 0 3.6-1.2 1.99-1.99.95-3.33 3.59-5.18.07-.05.12-.09.19-.14 0 6.54.94 10.27 1.87 12.14.94 1.87 2.18 2.55 4.68 3.75.1.04.18.08.27.12Z" fill="#fff"/><path d="M122.79 60.921c3.18.32 4.76 2.79 4.37 3.39-.38.6-4.76-.39-7.18-.39h-.59c-.18-1.13-.37-2.23-.59-3.3 1.42.08 2.81.18 3.99.3Z" fill="#000"/><path d="M87.5 32.1c.26.11 2.54 1.02 5.17-1.61 2.39-2.39 5.58-1.19 6.77.4 1.14 1.52 2.85 1.9 4.11 1.76 7.51 7.1 12.69 15.17 15.25 27.96-3.31-.2-6.63-.29-7.19-.29-.8 0-3.19-.4-3.59.8-.65 1.93-1.26 2.79.8 2.79h10.58c.83 5.35 1.26 11.49 1.26 18.62 0 8.65 0 17.41-1 25.271-.78-1.19-1.27-2.87-1.66-4.82-.8-3.98-2.79-5.98-5.19-6.38-2.39-.39-7.97-2.39-9.97-3.59-2-1.2-4.79.4-4.79.4-.39-.4-2.39-1.2-3.98-.4-1.6.8-4.79 2.79-8.78 3.99-3.07.92-3.98 1.59-5.18 5.58-.95 3.15-3.59 8.77-7.98 8.37-4.38-.4-6.77-9.17-6.77-9.17l-.6.59c-2.39-3.59-3.59-13.56-3.59-16.35-.2.2-.45 6.53-.6 7.78-.17 1.41-.21 2.67-.18 3.81-3.35.09-5.26-3.77-6.79-7.88-1.59-4.27-5.19-18.06.8-18.92.29-.04.57-.06.83-.04 5.23.32 5.94 11.26 5.94 11.26.39-6.77-.8-16.68 0-21.3.8-4.61 3.59-8.6 3.59-8.6s.2-6.66 2.39-12.88c2.4-6.78 5.21-6.6 10.37-5.18 4.38 1.19 6.78-1.6 7.58-2.79.8-1.2 2.04-2.48 3.24-1.69 1.19.82.35 2.88-.84 2.51Zm30.69 40.38c0-1.98-1.52-3.58-3.39-3.58s-3.39 1.6-3.39 3.58 1.52 3.58 3.39 3.58 3.39-1.61 3.39-3.58Zm-31.5-7.97c2.06 0 1.44-1.26.8-3.19-.39-1.2-2.39-.8-3.19-.8-.8 0-7.18.39-11.17.8-3.18.32-3.59 1.2-4.79 3.19 0 0 3.95-.4 6.38-.4 3.2 0 9.92.4 11.97.4Zm-2.39 7.97c0-1.98-1.52-3.58-3.39-3.58s-3.39 1.6-3.39 3.58 1.52 3.58 3.39 3.58 3.39-1.61 3.39-3.58Z" fill="#fff"/><path d="M119.4 63.912h-10.58c-2.06 0-1.44-.86-.8-2.79.39-1.2 2.79-.8 3.59-.8.56 0 3.89.09 7.19.29.23 1.08.42 2.17.6 3.3ZM60.39 97.633c-.03-1.14.01-2.41.18-3.81.15-1.25.4-7.58.6-7.78 0 2.79 1.2 12.76 3.59 16.35l.6-.59s2.39 8.77 6.77 9.17c4.39.39 7.04-5.23 7.98-8.37 1.2-3.99 2.11-4.67 5.18-5.58 3.99-1.2 7.18-3.19 8.78-3.99 1.59-.8 3.59 0 3.98.4 0 0 2.79-1.6 4.79-.4 2 1.2 7.58 3.19 9.97 3.59 2.4.4 4.39 2.4 5.19 6.38.38 1.96.88 3.63 1.66 4.82-1.82 14.3-6.94 25.67-21.4 28.02 0 0-2.57 1.45-5.79 1.45-2.79 0-3.59-1.59-3.59-1.59s-4.38 1.19-7.57-3.19c-1.66-2.28-4.39-.39-6.39-2.39-1.8-1.81.4-3.19-.8-4.38a.923.923 0 0 0-1.59.39c-.11.51.4 1.2.4 1.2s-4.02 0-4.02-4.53c0-.21.01-.43.03-.66 0 0-3.99-.8-4.79-5.18-.8-4.38-4.14-4.02-2.79-10.76.32-1.6-.87-4.19-.97-8.57Zm54.02 11.74c0-4.38-.8-8.43-5.99-9.17-2.79-.39-7.18 0-8.37-.8-1.05-.7-1.59-4.38-1.59-4.38s-.22 4.41-2 4.38c-1.77-.03-5.8.07-8.37.8-2.79.8-5.18 2.4-4.79 7.58.4 5.18 3.19 10.38 9.98 10.37 5.84-.01 6.38-1.59 6.38-4.38l.4-.01c.09 2.3 1.42 4.77 6.78 4.39 3.99-.29 7.57-4.39 7.57-8.78ZM114.8 76.062c1.872 0 3.39-1.602 3.39-3.58 0-1.977-1.518-3.58-3.39-3.58s-3.39 1.603-3.39 3.58c0 1.978 1.518 3.58 3.39 3.58Z" fill="#000"/><path d="M108.42 100.202c5.19.74 5.99 4.79 5.99 9.17 0 4.39-3.58 8.49-7.57 8.78-5.36.37-6.69-2.09-6.78-4.39-.01-.1-.01-.2-.01-.3 0-2.39.94-3.75.94-3.75 1.87.94 2.81.94 2.81.94-2-.8 0-1.61 0-2.81 0-1.43-1.61-1.34-2.81-.94-1.2.4-1.61.4-2.81 0-1.56-.52-2.51-.71-2.8.08-.29.8.69 2 1.09 2.39.4.4-.39 1.2-.39 1.2.8.4 1.59-.8 2.39-.8s1.2 1.2 1.2 3.99-.54 4.37-6.38 4.38c-6.78.01-9.57-5.19-9.98-10.37-.39-5.18 2-6.78 4.79-7.58 2.58-.73 6.6-.82 8.37-.8 1.77.03 2-4.38 2-4.38s.54 3.68 1.59 4.38c1.19.81 5.57.41 8.36.81ZM92.47 137.283c6.6 6.1 24.17 12.6 38.17 12.7-5.41 6.61-16.63 12.65-31.05 12.65-25.29 0-41.22-14.99-37.47-24.36 2.55-1.11 3.75-1.87 4.68-3.75.92-1.84 1.84-5.45 1.87-11.75h.25c0 4.53 4.02 4.53 4.02 4.53s-.52-.69-.4-1.2a.92.92 0 0 1 1.59-.39c1.2 1.19-1 2.58.8 4.38 2 2 4.73.11 6.39 2.39 3.19 4.38 7.57 3.19 7.57 3.19s.79 1.61 3.58 1.61Z" fill="#fff"/><path d="M103.79 110.641s-.94 0-2.81-.94c0 0-.94 1.36-.94 3.75 0 .1 0 .2.01.3l-.4.01c0-2.79-.4-3.99-1.2-3.99-.8 0-1.59 1.2-2.39.8 0 0 .8-.8.39-1.2-.39-.39-1.38-1.59-1.09-2.39.29-.8 1.24-.61 2.8-.08 1.2.4 1.61.4 2.81 0s2.81-.5 2.81.94c.01 1.19-1.98 2.01.01 2.8ZM87.48 61.321c.65 1.93 1.26 3.19-.8 3.19-2.05 0-8.77-.4-11.96-.4-2.43 0-6.38.4-6.38.4 1.2-2 1.61-2.88 4.79-3.19 3.99-.4 10.37-.8 11.17-.8.8 0 2.79-.4 3.18.8ZM80.91 76.062c1.873 0 3.39-1.602 3.39-3.58 0-1.977-1.517-3.58-3.39-3.58-1.872 0-3.39 1.603-3.39 3.58 0 1.978 1.518 3.58 3.39 3.58Z" fill="#000"/><path d="M135.721 151.71c2.76-3.77 3.83-7.63 2.84-10.8M80.91 164.352c5.56 1.69 11.91 2.7 18.9 2.7 13.43 0 24.41-4.64 31.29-10.45M57.09 140.5c-1.67 6.39 4.08 14.69 14.95 20.29" stroke="#000" stroke-width="2" stroke-miterlimit="10" stroke-linecap="round" stroke-linejoin="round"/><path d="M62.11 138.281c-3.75 9.37 12.18 24.36 37.47 24.36 14.431 0 25.651-6.03 31.051-12.65 3.33-4.08 4.44-8.37 2.74-11.59-.02-.04-.05-.08-.07-.12" stroke="#000" stroke-width="2" stroke-miterlimit="10" stroke-linecap="round" stroke-linejoin="round"/><path d="M-28.01 216.032c8.85-22.4 13.3-35.6 29.23-49.65 14.9-13.15 32.79-15.93 60.89-28.1 2.55-1.11 3.75-1.87 4.68-3.75.92-1.84 1.84-5.45 1.87-11.75v-.43M223.231 216.031c-8.85-22.4-13.3-35.6-29.23-49.65-14.86-13.12-33.42-14.98-60.64-27.98-.08-.04-.17-.08-.25-.12-2.5-1.2-3.75-1.87-4.68-3.75-.94-1.87-1.87-5.6-1.87-12.14M55.23 70.832v-.04c-.44-7.34-.71-13.18-.44-20.64.39-11.17 5.58-17.94 5.58-17.94s0-2 .39-3.19c.8-2.39 2.66-2.25 2.79-2.79.4-1.59 2-2.39 2-2.39s-.39-2 1.2-3.59c2.39-2.4 4.79-2 4.79-2 0-2 2.39-2.79 3.98-2 1.13.56 2.79.39 3.19-.4.56-1.12-.96-3.37-2.56-2.17 0 0 2.18-3.25 7.34-2.6 3.19.39 4.01-1.66 6.38-2 2.79-.4 2.79.8 5.18.8 2.4 0 3.22-.88 5.581-.4 2.37.49 2 1.6 5.58 1.6s6.38.39 7.58 2.39c1.19 2 2 3.19 4.38 3.19s6.02-.54 7.62 2.65c0 0-1.24-.25-2.03.54-.8.8.4 2 2.39 2 2.43 0 5.19 3.59 3.99 6.77 0 0 5.81 3.45 5.93 11.3.06 3.86 2.04 5.06 1.65 11.83-.4 6.78 0 11.17.05 16.52" stroke="#000" stroke-width="2" stroke-miterlimit="10" stroke-linecap="round" stroke-linejoin="round"/><path d="M87.48 32.091c.01 0 .01 0 .02.01 1.19.37 2.02-1.7.83-2.49-1.2-.8-2.45.49-3.24 1.69-.8 1.19-3.19 3.98-7.58 2.79-5.16-1.41-7.97-1.6-10.37 5.18-2.19 6.22-2.39 12.88-2.39 12.88s-2.79 3.99-3.59 8.6c-.8 4.62.39 14.53 0 21.3 0 0-.71-10.94-5.94-11.26-.26-.02-.54 0-.83.04-5.99.86-2.39 14.65-.8 18.92 1.53 4.11 3.44 7.97 6.79 7.88.12 0 .24 0 .37-.02" stroke="#000" stroke-width="2" stroke-miterlimit="10" stroke-linecap="round" stroke-linejoin="round"/><path d="M135.031 96.33c3.29-.79 5.15-5.72 6.3-10.29 1.56-6.25 3.59-17.14-2-17.55-.53-.04-1.02.01-1.45.13-4.13 1.08-4.13 8.24-4.13 8.24 0-23.13-6.38-28.31-6.38-28.31s.4-1.71 0-8.09-4.79-9.98-7.97-9.57c-2.8.35-3.19 2-7.98 1.59-3.18-.26-5.58-3.59-7.57-2.39-1.24.74 1.19 2 1.19 2-.27.27-.82.49-1.47.56-1.26.14-2.97-.24-4.11-1.76-1.19-1.59-4.38-2.79-6.77-.4-2.63 2.63-4.91 1.72-5.17 1.61" stroke="#000" stroke-width="2" stroke-miterlimit="10" stroke-linecap="round" stroke-linejoin="round"/><path d="M60.39 97.633c-.03-1.14.01-2.41.18-3.81.15-1.25.4-7.58.6-7.78 0 2.79 1.2 12.76 3.59 16.35l.6-.59s2.39 8.77 6.77 9.17c4.39.39 7.04-5.23 7.98-8.37 1.2-3.99 2.11-4.67 5.18-5.58 3.99-1.2 7.18-3.19 8.78-3.99 1.59-.8 3.59 0 3.98.4 0 0 2.79-1.6 4.79-.4 2 1.2 7.58 3.19 9.97 3.59 2.4.4 4.39 2.4 5.19 6.38.38 1.96.88 3.63 1.66 4.82.8 1.24 1.9 1.96 3.52 1.96 3.59 0 6.38-6.38 7.58-13.56l.8.8s2.39-6.38 2.39-13.16c0 0 1.65 3.96 1.05 12.48-.06.85-.14 1.74-.24 2.68-.42 3.64.73 5.58.37 9.2-.37 3.95-1.57 5.15-3.97 7.94-1.63 1.91-.82 3.53-4.59 6.24-.07.05-.12.09-.19.14-2.64 1.85-1.6 3.19-3.59 5.18-1.2 1.2-2.79.81-3.6 1.2-.8.4 0 3.59-4.78 4.79-1.6.39-2 2.39-4.39 2.79-3.17.52-3.7-.4-4.38 0-.68.39-3.2 1.67-5.58 1.2-2-.4-1.79-1.85-1.79-1.85s-2.57 1.45-5.79 1.45c-2.79 0-3.59-1.59-3.59-1.59s-4.38 1.19-7.57-3.19c-1.66-2.28-4.39-.39-6.39-2.39-1.8-1.81.4-3.19-.8-4.38a.923.923 0 0 0-1.59.39c-.11.51.4 1.2.4 1.2s-4.02 0-4.02-4.53c0-.21.01-.43.03-.66 0 0-3.99-.8-4.79-5.18-.8-4.38-4.14-4.02-2.79-10.76.31-1.61-.88-4.2-.98-8.58Z" stroke="#000" stroke-miterlimit="10" stroke-linecap="round" stroke-linejoin="round"/><path d="M100.061 113.752c.09 2.3 1.42 4.77 6.78 4.39 3.99-.29 7.57-4.38 7.57-8.78 0-4.38-.8-8.43-5.99-9.17-2.79-.39-7.18 0-8.37-.8-1.05-.7-1.59-4.38-1.59-4.38s-.22 4.41-2 4.38c-1.77-.03-5.8.07-8.37.8-2.79.8-5.18 2.4-4.79 7.58.4 5.18 3.19 10.38 9.98 10.37 5.84-.01 6.38-1.59 6.38-4.38s-.4-3.99-1.2-3.99c-.8 0-1.59 1.2-2.39.8 0 0 .8-.8.39-1.2-.39-.39-1.38-1.59-1.09-2.39.29-.8 1.24-.61 2.8-.08 1.2.4 1.61.4 2.81 0s2.81-.5 2.81.94c0 1.2-2 2.01 0 2.81 0 0-.94 0-2.81-.94 0 0-.94 1.36-.94 3.75.01.1.01.19.02.29Z" stroke="#000" stroke-miterlimit="10" stroke-linecap="round" stroke-linejoin="round"/><path d="M89.09 61.32c.26.81.53 1.78.67 2.34" stroke="#000" stroke-width="2" stroke-miterlimit="10" stroke-linecap="round" stroke-linejoin="round"/><path d="m106.11 61.32-.91 2.02" stroke="#000" stroke-width="1.747" stroke-miterlimit="10" stroke-linecap="round" stroke-linejoin="round"/><path d="M97.17 69.32c-.37 5.02-1.97 8.21-3.56 12.99-1.29 3.86 1.19 6.78 7.571 7.58M55.99 74.082c-1.2.4-2.4 2.79-1.6 5.19M137.78 72.05c1.14.04 2.34 2.83 1.95 4.82M88.28 102.002c5.58 2 14.75 2 21.54-.4" stroke="#000" stroke-width="2" stroke-miterlimit="10" stroke-linecap="round" stroke-linejoin="round"/></g><defs><clipPath id="a"><rect width="196" height="196" rx="98" fill="#fff"/></clipPath></defs></svg>