<svg xmlns="http://www.w3.org/2000/svg" width="128" height="128" fill="none"><path fill="#F4FBF6" d="M0 51.2c0-17.922 0-26.883 3.488-33.728A32 32 0 0 1 17.472 3.488C24.317 0 33.278 0 51.2 0h25.6c17.922 0 26.883 0 33.728 3.488a32 32 0 0 1 13.984 13.984C128 24.317 128 33.278 128 51.2v25.6c0 17.922 0 26.883-3.488 33.728a32 32 0 0 1-13.984 13.984C103.683 128 94.722 128 76.8 128H51.2c-17.922 0-26.883 0-33.728-3.488a32 32 0 0 1-13.984-13.984C0 103.683 0 94.722 0 76.8V51.2Z"/><path fill="#16A34A" d="M101.207 53.794H63.532v2.916h37.675v-2.916ZM101.207 59.626H63.532v2.916h37.675v-2.916ZM101.207 65.458H63.532v2.916h37.675v-2.916Z"/><path fill="#16A34A" d="M63.532 74.206H80.41a18.008 18.008 0 0 1-2.09 2.513 18.035 18.035 0 0 1-5.839 3.904c-2.169.9-4.498 1.361-6.88 1.365a18.013 18.013 0 0 1-6.881-1.365 18.035 18.035 0 0 1-9.742-9.742 17.994 17.994 0 0 1-1.364-6.88 18.01 18.01 0 0 1 1.364-6.88 18.035 18.035 0 0 1 9.742-9.742c2.169-.9 4.499-1.362 6.88-1.365a18.01 18.01 0 0 1 6.881 1.364 18.055 18.055 0 0 1 6.175 4.252l2.063-2.062a20.971 20.971 0 0 0-7.122-4.883 20.937 20.937 0 0 0-15.997 0 20.987 20.987 0 0 0-6.784 4.536 20.982 20.982 0 0 0-4.536 6.783 20.937 20.937 0 0 0 0 15.996 20.988 20.988 0 0 0 4.536 6.784A20.974 20.974 0 0 0 57.6 83.32a20.937 20.937 0 0 0 15.997 0 20.987 20.987 0 0 0 7.197-4.963v3.988a23.861 23.861 0 0 1-6.08 3.668 23.85 23.85 0 0 1-9.115 1.81 23.85 23.85 0 0 1-9.115-1.81 23.905 23.905 0 0 1-7.728-5.167 23.884 23.884 0 0 1-5.166-7.728 23.85 23.85 0 0 1-1.81-9.115 23.85 23.85 0 0 1 1.81-9.115 23.886 23.886 0 0 1 5.167-7.728 23.883 23.883 0 0 1 7.729-5.167 23.848 23.848 0 0 1 9.115-1.809c3.13.003 6.237.615 9.115 1.81a23.904 23.904 0 0 1 8.066 5.513l2.062-2.062a26.787 26.787 0 0 0-9.012-6.146 26.792 26.792 0 0 0-10.231-2.032c-3.504.001-7.001.689-10.232 2.032a26.82 26.82 0 0 0-8.674 5.799 26.788 26.788 0 0 0-5.798 8.674 26.792 26.792 0 0 0-2.033 10.231c.001 3.504.69 7 2.033 10.232a26.822 26.822 0 0 0 5.798 8.674 26.788 26.788 0 0 0 8.674 5.798 26.794 26.794 0 0 0 10.232 2.033A26.658 26.658 0 0 0 80.796 86v3.465a29.455 29.455 0 0 1-3.847 1.935 29.684 29.684 0 0 1-11.35 2.255c-3.877 0-7.763-.764-11.35-2.255a29.722 29.722 0 0 1-9.617-6.43 29.741 29.741 0 0 1-6.43-9.618 29.684 29.684 0 0 1-2.255-11.35c0-3.877.763-7.763 2.254-11.35a29.72 29.72 0 0 1 6.43-9.617 29.741 29.741 0 0 1 9.619-6.431 29.685 29.685 0 0 1 11.35-2.254c3.877 0 7.762.763 11.349 2.254a29.722 29.722 0 0 1 9.618 6.43c.114.115.225.231.338.348l2.062-2.063c-.112-.116-.224-.233-.338-.346a32.659 32.659 0 0 0-10.564-7.063 32.626 32.626 0 0 0-24.932 0 32.64 32.64 0 0 0-10.563 7.063 32.68 32.68 0 0 0-7.063 10.563 32.625 32.625 0 0 0 0 24.932 32.64 32.64 0 0 0 7.063 10.564 32.66 32.66 0 0 0 10.563 7.063 32.625 32.625 0 0 0 24.932 0c.93-.386 1.84-.815 2.73-1.285v3.261c-.532.253-1.069.492-1.613.718a35.54 35.54 0 0 1-27.165 0 35.555 35.555 0 0 1-11.508-7.694 35.555 35.555 0 0 1-7.694-11.508 35.54 35.54 0 0 1 0-27.165 35.556 35.556 0 0 1 7.694-11.508 35.555 35.555 0 0 1 11.508-7.694 35.54 35.54 0 0 1 27.165 0 35.556 35.556 0 0 1 11.508 7.694c.114.114.225.23.338.347l2.063-2.062c-.113-.115-.225-.233-.339-.347A38.344 38.344 0 0 0 73.081 26.34a38.334 38.334 0 0 0-22.18 2.182 38.495 38.495 0 0 0-12.455 8.326A38.48 38.48 0 0 0 30.122 49.3 38.32 38.32 0 0 0 27.2 64c.002 2.5.245 5.013.735 7.482a38.232 38.232 0 0 0 2.187 7.218 38.496 38.496 0 0 0 8.326 12.453A38.481 38.481 0 0 0 50.9 99.478a38.287 38.287 0 0 0 7.218 2.187c2.469.49 4.982.733 7.482.735a38.64 38.64 0 0 0 7.481-.735 38.216 38.216 0 0 0 7.218-2.187c.166-.068.33-.141.496-.212v3.134h2.915V74.206h2.917V102.4h2.916V74.206h2.916V102.4h2.916V74.206h2.916V102.4h2.916V71.29H63.533v2.916Z"/></svg>